<svg width="52" height="52" viewBox="0 0 52 52" fill="none" xmlns="http://www.w3.org/2000/svg">
<path fill-rule="evenodd" clip-rule="evenodd" d="M34.6667 4.33398H17.3333C10.1536 4.33398 4.33333 10.1543 4.33333 17.334V34.6673C4.33333 41.847 10.1536 47.6673 17.3333 47.6673H34.6667C41.8464 47.6673 47.6667 41.847 47.6667 34.6673V17.334C47.6667 10.1543 41.8464 4.33398 34.6667 4.33398ZM8.66667 17.334C8.66667 12.5475 12.5469 8.66732 17.3333 8.66732H34.6667C39.4531 8.66732 43.3333 12.5475 43.3333 17.334V34.6673C43.3333 39.4538 39.4531 43.334 34.6667 43.334H17.3333C12.5469 43.334 8.66667 39.4538 8.66667 34.6673V17.334ZM26 36.834C20.0169 36.834 15.1667 31.9837 15.1667 26.0006C15.1667 20.0176 20.0169 15.1673 26 15.1673C31.9831 15.1673 36.8333 20.0176 36.8333 26.0006C36.8333 31.9837 31.9831 36.834 26 36.834ZM26 32.5007C29.5899 32.5007 32.5 29.5905 32.5 26.0007C32.5 22.4108 29.5899 19.5007 26 19.5007C22.4101 19.5007 19.5 22.4108 19.5 26.0007C19.5 29.5905 22.4101 32.5007 26 32.5007ZM39 15.1673C39 16.3639 38.03 17.334 36.8333 17.334C35.6367 17.334 34.6667 16.3639 34.6667 15.1673C34.6667 13.9707 35.6367 13.0007 36.8333 13.0007C38.03 13.0007 39 13.9707 39 15.1673Z" fill="white"/>
</svg>
