<svg width="48" height="48" viewBox="0 0 48 48" fill="none" xmlns="http://www.w3.org/2000/svg">
<path fill-rule="evenodd" clip-rule="evenodd" d="M20 23.6943L40 20.3609V28.9332C38.8161 28.3373 37.4464 28 36 28C31.6542 28 28 31.0452 28 35C28 38.9549 31.6542 42 36 42C40.3458 42 44 38.9549 44 35V3.6391L16 8.30577V30.9332C14.8161 30.3373 13.4463 30 12 30C7.65416 30 4 33.0452 4 37C4 40.9549 7.65416 44 12 44C16.3458 44 20 40.9549 20 37V23.6943ZM16 37C16 38.568 14.2816 40 12 40C9.71842 40 8 38.568 8 37C8 35.432 9.71842 34 12 34C14.2816 34 16 35.432 16 37ZM36 38C38.2816 38 40 36.568 40 35C40 33.432 38.2816 32 36 32C33.7184 32 32 33.432 32 35C32 36.568 33.7184 38 36 38ZM20 19.639V11.6942L40 8.36086V16.3057L20 19.639Z" fill="white"/>
</svg>
