<svg xmlns="http://www.w3.org/2000/svg" width="52" height="52" fill="none" viewBox="0 0 52 52"><path fill="#fff" fill-rule="evenodd" d="M45.759 9.76858L48.8243 10.1266L47.4464 12.888C46.7745 14.2346 46.1019 15.5813 45.4286 16.9279C45.3487 17.2131 45.2084 17.4632 45.0009 17.7887C44.9142 17.9247 44.618 18.3574 44.6041 18.3782C44.5259 18.4955 44.4681 18.588 44.4264 18.6621V23.8373C44.4264 37.0799 31.6106 45.4951 19.5077 45.4951C17.0311 45.4951 15.1495 45.3764 12.9949 44.9062C9.44916 44.1325 6.81043 42.5944 5.60294 39.9063L4.35979 37.1388L7.38095 36.8609C10.114 36.6096 12.4837 36.0889 14.3034 35.3917C9.3075 34.5882 6.5078 32.394 6.5078 28.2732V26.1066H8.67447C9.15051 26.1066 9.57976 26.0679 9.96351 25.9971C6.214 23.7552 4.33598 20.1589 4.33598 15.1706C4.33557 14.958 4.33557 14.958 4.33429 14.7307C4.32021 12.2164 4.45526 10.8729 5.14356 9.15827C5.58468 8.05937 6.2223 7.04207 7.08045 6.10993L8.71544 4.33398L10.305 6.15066C15.5435 12.1375 20.7219 15.7695 26.009 16.2089C26.0316 10.6846 30.2067 6.50395 35.7594 6.50395C38.348 6.50395 40.6961 7.48651 42.5414 9.25822C43.5513 9.46575 44.6239 9.63602 45.759 9.76858ZM40.9687 13.3516L40.3045 13.2012L39.8458 12.6978C38.7366 11.4808 37.3445 10.8372 35.7594 10.8372C32.5896 10.8372 30.3423 13.0957 30.3423 16.2539C30.3423 16.77 30.3289 17.0943 30.2646 17.5206C30.0081 19.2214 29.054 20.5872 27.0922 20.5872C20.5965 20.5872 14.7363 17.1073 9.02175 11.1639C8.72715 12.0594 8.65787 12.9799 8.66754 14.7063C8.66885 14.9372 8.66885 14.9372 8.6693 15.1705C8.6693 19.6079 10.467 22.0351 14.7235 23.388L16.2339 23.868V25.4529C16.2339 27.3747 14.4131 29.1837 11.7491 29.994C12.9703 30.9206 15.4678 31.4205 19.5084 31.4205H21.6751V33.5872C21.6751 36.6915 18.1082 39.122 12.7199 40.3913C14.4772 40.9296 16.8169 41.1617 19.5077 41.1617C29.5056 41.1617 40.0931 34.2097 40.0931 23.8372V18.4205C40.0931 17.784 40.2776 17.2315 40.5841 16.657C40.704 16.4324 40.836 16.2183 40.9988 15.9741C41.0295 15.9281 41.1432 15.7615 41.2335 15.6283L41.4053 15.2849C41.6835 14.7284 41.9617 14.1719 42.2397 13.6154C41.8076 13.5336 41.3839 13.4456 40.9687 13.3516Z" clip-rule="evenodd"/></svg>