<svg xmlns="http://www.w3.org/2000/svg" width="148" height="148" fill="none" viewBox="0 0 148 148"><path fill="#fff" fill-rule="evenodd" d="M74.0001 40.8118L49.3334 53.1451V94.8561L74.0001 107.189V40.8118ZM86.3334 20.856L41.7122 43.1667H18.5001C11.6886 43.1667 6.16675 48.6885 6.16675 55.5V92.5C6.16675 99.3115 11.6886 104.833 18.5001 104.833H41.7098L86.3334 127.145V20.856ZM18.5001 55.5H37.0001V92.5H18.5001V55.5ZM117.167 74.0012C117.167 59.1354 111.4 45.7109 102.211 36.6324L92.4832 44.4147C99.9444 51.1334 104.833 61.8262 104.833 74.0012C104.833 86.1762 99.9444 96.869 92.4832 103.588L102.211 111.37C111.4 102.292 117.167 88.867 117.167 74.0012Z" clip-rule="evenodd"/></svg>