<svg xmlns="http://www.w3.org/2000/svg" width="52" height="52" fill="none" viewBox="0 0 52 52"><path fill="#fff" fill-rule="evenodd" d="M47.7203 39.2771C49.2008 36.7398 49.8333 32.6486 49.8333 25.9933C49.8333 19.3645 49.2067 15.2971 47.7105 12.6917C46.2109 9.9863 44.4325 9.12758 40.903 8.92147C38.4934 8.75815 32.5049 8.66602 26.0058 8.66602C19.4926 8.66602 13.5015 8.75811 11.0738 8.92275C7.56408 9.12808 5.78524 9.98869 4.27252 12.7016C2.798 15.298 2.16666 19.3853 2.16666 26.0175C2.16666 32.6121 2.80105 36.72 4.28547 39.3078C5.77852 41.9858 7.52901 42.8361 11.0686 43.0847C13.6126 43.2336 19.9429 43.3327 26.0058 43.3327C32.055 43.3327 38.3822 43.2335 40.903 43.0863C44.4752 42.8361 46.2253 41.9845 47.7203 39.2771ZM40.6302 13.2462C42.838 13.3752 43.2474 13.5736 43.9472 14.8402C44.966 16.6047 45.5 20.0577 45.5 26.0175C45.5 31.9323 44.9632 35.4043 43.9519 37.1382C43.2497 38.4087 42.8432 38.6066 40.6252 38.762C38.2393 38.9012 31.9735 38.9993 26.0058 38.9993C20.0246 38.9993 13.7556 38.9012 11.3469 38.7604C9.15635 38.6064 8.74391 38.406 8.05726 37.1746C7.0392 35.3995 6.5 31.9079 6.5 25.9933C6.5 20.0822 7.03633 16.6099 8.04894 14.8268C8.74628 13.5763 9.16162 13.3753 11.347 13.2474C13.661 13.0906 19.5959 12.9993 26.0058 12.9993C32.4019 12.9993 38.334 13.0906 40.6302 13.2462ZM21.6667 19.4993L32.5 25.9993L21.6667 32.4993V19.4993Z" clip-rule="evenodd"/></svg>